<?xml version="1.0" standalone="no"?>
<!DOCTYPE svg PUBLIC "-//W3C//DTD SVG 20010904//EN"
 "http://www.w3.org/TR/2001/REC-SVG-20010904/DTD/svg10.dtd">
<svg version="1.0" xmlns="http://www.w3.org/2000/svg"
 width="272.000000pt" height="278.000000pt" viewBox="0 0 272.000000 278.000000"
 preserveAspectRatio="xMidYMid meet">

<g transform="translate(0.000000,278.000000) scale(0.100000,-0.100000)"
fill="#000000" stroke="none">
<path d="M1355 2652 c-124 -9 -299 -103 -400 -214 -104 -116 -140 -227 -132
-408 3 -63 8 -125 12 -137 6 -19 3 -22 -26 -25 -69 -6 -74 -102 -13 -238 27
-61 72 -100 115 -100 17 0 19 5 13 43 -3 23 -12 67 -19 97 -27 114 -41 316
-25 370 6 21 6 38 0 45 -5 6 -5 17 -1 24 10 16 21 -8 28 -59 5 -44 5 -45 -3
-104 -5 -33 -4 -47 4 -42 6 4 8 -1 5 -14 -3 -10 1 -43 8 -72 20 -84 27 -141
34 -266 4 -72 12 -113 39 -185 29 -77 33 -99 27 -137 -4 -25 -10 -51 -14 -57
-4 -6 -3 -14 3 -18 6 -4 7 -12 3 -18 -9 -15 -10 -19 -12 -60 -1 -24 -7 -36
-23 -43 -13 -6 -17 -9 -10 -7 6 1 12 -4 12 -12 0 -8 -7 -16 -15 -16 -8 -1 -19
-3 -25 -4 -5 -1 -14 -3 -20 -4 -5 0 -10 -12 -10 -26 0 -18 4 -23 16 -18 12 4
15 2 12 -8 -3 -8 -10 -15 -16 -15 -7 -1 -18 -2 -26 -3 -9 -1 -12 -8 -9 -21 3
-11 1 -20 -5 -20 -16 0 -10 43 8 57 11 9 12 12 2 13 -8 0 -10 5 -5 13 4 6 9
21 11 32 2 11 5 25 6 31 1 7 8 19 15 28 11 13 11 16 -1 16 -28 0 -109 -61
-141 -106 -17 -25 -49 -55 -70 -65 -21 -11 -55 -35 -76 -55 -21 -19 -65 -43
-97 -54 -54 -19 -118 -48 -389 -180 -55 -27 -110 -52 -122 -55 l-23 -6 0 -275
0 -274 527 0 c365 1 531 4 540 12 9 7 13 7 13 -1 0 -6 7 -11 15 -11 8 0 15 7
15 16 0 8 -5 12 -10 9 -5 -3 -10 1 -10 9 0 14 3 14 20 4 11 -7 20 -17 20 -23
0 -5 11 -10 24 -10 15 0 22 5 19 13 -3 6 2 12 11 12 9 0 16 -6 16 -12 0 -7 11
-14 25 -14 13 -1 23 3 22 8 -1 6 4 13 11 15 6 3 12 -2 12 -11 0 -22 39 -21 56
1 13 17 13 17 14 1 0 -22 26 -24 34 -2 3 8 10 12 16 9 6 -4 8 -10 5 -15 -3 -4
3 -7 13 -6 9 0 21 7 25 14 11 16 27 15 27 -2 0 -8 10 -13 24 -13 17 0 23 4 19
13 -3 9 2 14 12 14 11 0 15 -5 11 -15 -7 -18 10 -20 17 -2 4 8 8 8 14 2 4 -5
25 -11 46 -13 28 -2 37 1 37 13 0 8 7 15 15 15 8 0 15 -4 15 -9 0 -5 9 -11 19
-14 14 -3 18 -1 14 9 -3 8 0 14 6 14 6 0 11 -6 11 -13 0 -7 9 -13 20 -13 11 0
20 6 20 13 0 7 6 13 14 13 8 0 16 7 20 15 7 19 26 20 26 1 0 -7 -9 -16 -20
-19 -11 -3 -20 -10 -20 -15 0 -6 167 -10 470 -11 l470 -2 0 315 0 314 -31 11
c-18 6 -42 11 -55 11 -13 0 -51 18 -85 40 -34 22 -66 40 -71 40 -5 0 -42 16
-83 35 -66 30 -217 85 -237 85 -21 0 -113 78 -151 128 -43 57 -109 105 -160
118 l-29 7 16 -30 c8 -17 12 -33 9 -37 -4 -3 -1 -6 6 -6 7 0 11 -6 8 -14 -3
-7 0 -19 6 -25 8 -8 7 -11 -3 -11 -9 0 -8 -5 6 -15 15 -11 16 -15 4 -15 -9 0
-6 -6 10 -16 14 -8 17 -13 7 -10 -10 3 -41 6 -68 6 -60 0 -66 19 -6 21 l42 2
-40 6 c-38 6 -40 8 -38 39 1 19 10 40 20 48 10 7 13 14 8 14 -12 0 -14 7 -21
105 -3 39 -10 75 -14 80 -4 6 7 57 25 115 64 202 67 223 79 595 2 76 8 121 15
123 6 2 11 11 11 19 0 9 3 14 6 11 3 -4 8 -59 11 -125 5 -119 -5 -233 -34
-370 -20 -98 -5 -117 58 -70 41 30 54 56 73 157 15 73 15 91 4 125 -13 38 -16
40 -51 38 -20 -1 -37 0 -37 3 0 3 7 27 16 54 23 71 16 253 -14 334 -62 169
-313 376 -478 394 -33 4 -77 6 -99 4z m374 -198 c14 9 76 -52 98 -95 49 -99
91 -224 79 -237 -3 -2 -8 7 -12 22 -3 14 -10 26 -14 26 -5 0 -11 14 -15 30 -4
17 -10 30 -15 30 -5 0 -10 8 -12 18 -3 20 -69 103 -130 164 -45 45 -49 62 -12
48 14 -6 29 -8 33 -6z m-679 -33 c-13 -11 -28 -17 -32 -15 -4 3 -5 -2 -2 -10
3 -9 2 -16 -4 -16 -5 0 -12 -8 -15 -19 -2 -10 -18 -24 -35 -32 -17 -7 -27 -16
-23 -19 5 -3 3 -11 -5 -18 -25 -23 -16 27 13 73 30 48 67 74 103 75 l25 0 -25
-19z m403 -176 c-3 -10 2 -15 17 -15 14 0 24 -8 27 -20 4 -14 11 -19 24 -15
11 4 27 -2 41 -15 13 -11 30 -27 39 -35 9 -8 21 -15 28 -15 7 0 10 -4 6 -9 -3
-5 3 -11 12 -13 10 -2 -10 -10 -44 -17 -53 -12 -63 -17 -63 -35 0 -12 -15 -33
-35 -49 -25 -20 -35 -36 -35 -57 0 -15 -8 -42 -17 -59 -15 -25 -16 -34 -5 -51
17 -28 15 -44 -8 -65 -20 -18 -21 -18 -45 5 -28 27 -31 46 -10 74 21 28 19 41
-10 54 -14 7 -29 20 -32 29 -4 10 -15 24 -25 31 -10 7 -18 19 -18 26 0 8 -11
17 -25 20 -14 4 -25 11 -25 16 0 5 -13 16 -30 25 -37 19 -38 34 -2 47 18 7 33
25 44 50 16 36 19 38 39 27 19 -10 25 -9 36 7 7 10 13 23 13 28 0 6 5 3 11 -6
11 -20 29 -24 29 -6 0 16 51 68 61 62 5 -2 6 -11 2 -19z m47 15 c0 -5 -2 -10
-4 -10 -3 0 -8 5 -11 10 -3 6 -1 10 4 10 6 0 11 -4 11 -10z m-590 -60 c0 -5
-5 -10 -11 -10 -5 0 -7 5 -4 10 3 6 8 10 11 10 2 0 4 -4 4 -10z m790 -208
c-30 -5 -70 6 -70 19 0 5 10 14 23 18 17 7 28 4 45 -13 l24 -21 -22 -3z m-503
-18 c-3 -3 -12 -4 -19 -1 -8 3 -5 6 6 6 11 1 17 -2 13 -5z m413 -79 c0 -8 -6
-15 -14 -15 -20 0 -29 17 -14 23 22 9 28 7 28 -8z m-390 -5 c17 -10 14 -15
-17 -24 -18 -6 -20 -4 -16 14 6 22 11 24 33 10z m-120 -10 c0 -5 -5 -10 -11
-10 -5 0 -7 5 -4 10 3 6 8 10 11 10 2 0 4 -4 4 -10z m461 -96 c7 -8 21 -13 31
-11 10 3 16 2 13 -3 -7 -12 58 -19 72 -8 7 5 17 7 23 3 5 -3 14 3 18 15 8 21
8 21 26 1 19 -21 32 -101 16 -101 -5 0 -7 -13 -4 -28 4 -19 1 -32 -10 -41 -9
-7 -13 -17 -10 -22 4 -8 -15 -12 -51 -12 -5 0 -11 -14 -12 -30 -3 -42 -9 -44
-38 -9 -14 17 -32 29 -39 26 -7 -3 -19 2 -26 11 -11 13 -10 19 5 35 11 13 25
18 37 14 25 -7 24 21 -2 64 -21 34 -24 36 -75 47 l-30 7 23 16 c18 14 20 20
10 30 -8 8 -8 12 -1 12 6 0 16 -7 24 -16z m229 -9 c0 -8 -4 -15 -10 -15 -5 0
-10 7 -10 15 0 8 5 15 10 15 6 0 10 -7 10 -15z m-532 -42 c2 -7 -3 -13 -11
-13 -26 0 -59 -51 -52 -80 12 -52 11 -66 -9 -87 -22 -26 -36 -29 -36 -10 0 9
-11 12 -32 10 -35 -4 -73 14 -51 24 9 3 10 10 4 22 -5 9 -6 32 -2 50 5 30 15
39 71 67 66 33 110 39 118 17z m260 -53 c22 0 32 -5 32 -15 0 -10 -10 -15 -32
-15 -18 0 -51 -11 -73 -25 -50 -30 -49 -30 -78 1 -23 25 -24 28 -9 56 8 17 29
36 46 44 30 13 32 12 57 -16 18 -22 34 -30 57 -30z m-215 -27 c-7 -2 -19 -2
-25 0 -7 3 -2 5 12 5 14 0 19 -2 13 -5z m224 -219 c9 -27 -160 -42 -211 -19
-17 7 -17 9 5 21 30 16 201 14 206 -2z m-27 -128 c0 -8 6 -17 13 -19 9 -4 8
-8 -3 -16 -8 -6 -11 -11 -6 -11 5 0 1 -8 -8 -19 -14 -15 -30 -18 -94 -17 -61
1 -77 4 -80 17 -4 24 26 43 64 41 23 -2 44 4 61 18 30 23 53 26 53 6z m-470
-284 c0 -4 -9 -8 -20 -8 -11 0 -20 4 -20 8 0 4 9 8 20 8 11 0 20 -4 20 -8z
m10 -33 c0 -6 -6 -9 -12 -6 -7 2 -23 0 -36 -4 -38 -14 -72 -18 -72 -8 0 5 6 9
13 10 23 1 61 9 66 14 9 10 41 5 41 -6z m-22 -45 c-8 -8 -68 -12 -68 -4 0 11
64 27 69 17 1 -4 1 -10 -1 -13z m36 4 c8 -32 7 -38 -5 -38 -6 0 -9 7 -6 15 4
8 2 17 -3 20 -12 8 -13 25 -1 25 5 0 11 -10 15 -22z m455 -24 c24 -12 30 -21
26 -35 -3 -10 -7 -28 -11 -38 -3 -11 -13 -23 -24 -26 -29 -9 -47 -35 -31 -45
15 -9 3 -59 -14 -61 -5 -1 -18 -5 -27 -10 -11 -6 -27 -3 -48 9 -28 15 -31 21
-26 51 3 19 -1 42 -9 55 -7 11 -13 33 -13 48 0 23 7 29 47 42 25 8 57 17 71
19 14 2 25 5 26 6 0 0 15 -6 33 -15z m251 6 c0 -5 -5 -10 -11 -10 -5 0 -7 5
-4 10 3 6 8 10 11 10 2 0 4 -4 4 -10z m-730 -11 c0 -5 -7 -9 -16 -9 -11 0 -14
-6 -9 -20 3 -11 2 -20 -3 -20 -5 0 -12 9 -15 21 -3 12 -10 19 -15 15 -18 -11
-72 -16 -72 -6 0 5 6 11 13 11 40 4 70 8 73 11 8 8 44 6 44 -3z m69 -24 c7
-19 9 -40 5 -47 -4 -7 -13 7 -20 33 -16 53 -16 49 -6 49 4 0 14 -16 21 -35z
m792 8 c6 -6 -7 -9 -36 -8 -25 1 -48 -1 -50 -5 -3 -5 16 -8 41 -8 80 0 70 -18
-11 -20 -60 -1 -75 1 -75 13 0 9 6 12 15 9 8 -4 15 -2 15 4 0 6 -14 8 -32 6
-30 -4 -31 -3 -15 10 21 16 132 15 148 -1z m-824 -16 c-5 -15 -47 -16 -47 -2
0 7 11 13 25 13 14 0 24 -5 22 -11z m-89 -8 c-2 -6 -8 -11 -13 -12 -6 0 -27
-4 -47 -7 -47 -9 -50 4 -5 17 45 13 69 14 65 2z m252 -15 c0 -2 -7 -4 -15 -4
-8 0 -15 4 -15 10 0 5 7 7 15 4 8 -4 15 -8 15 -10z m516 -2 c-5 -16 -2 -18 24
-14 21 3 30 0 30 -10 0 -10 -12 -14 -39 -13 -22 1 -38 -2 -35 -6 8 -14 79 -2
82 13 2 12 17 16 58 17 60 0 76 -18 17 -20 -21 -1 -45 0 -53 1 -8 1 -12 -1 -8
-6 4 -4 27 -8 50 -8 68 -2 56 -22 -13 -21 -33 0 -63 -3 -66 -8 -2 -4 -1 -7 4
-6 4 1 32 1 61 0 56 -1 71 -16 22 -23 -16 -3 -30 -1 -30 4 0 5 -4 7 -9 4 -4
-3 -32 -6 -60 -7 -29 -1 -54 -5 -56 -9 -2 -3 32 -5 76 -4 54 1 79 -2 79 -10 0
-8 -28 -12 -87 -11 -82 0 -88 1 -85 20 2 16 1 17 -7 5 -5 -8 -8 -17 -5 -21 2
-4 0 -10 -5 -14 -6 -3 -8 -12 -4 -20 3 -8 1 -15 -3 -15 -5 0 -10 -10 -10 -23
-2 -22 1 -23 42 -17 29 5 44 3 44 -4 0 -7 3 -7 8 1 4 6 20 10 35 9 29 -3 37 8
12 18 -8 3 -15 2 -15 -2 0 -4 -25 -8 -55 -8 -36 -1 -55 2 -55 10 0 8 36 12
115 14 67 2 115 0 115 -6 0 -5 -10 -9 -22 -9 -46 -1 -58 -3 -58 -12 0 -4 18
-7 40 -5 22 2 40 -1 40 -7 0 -5 -5 -8 -11 -6 -6 1 -14 -4 -16 -11 -3 -8 1 -10
11 -6 9 3 16 1 16 -5 0 -6 -7 -12 -15 -12 -29 -3 -33 -4 -42 -12 -4 -5 -2 -7
6 -5 7 2 15 -2 18 -9 2 -6 -4 -13 -14 -16 -10 -3 -3 -5 15 -6 17 0 32 -6 32
-11 0 -6 -7 -10 -16 -8 -10 2 -19 -2 -21 -9 -3 -7 3 -9 16 -6 12 3 21 1 21 -6
0 -6 -10 -11 -22 -12 -22 0 -22 -1 -3 -8 11 -5 26 -6 33 -4 6 3 12 1 12 -5 0
-5 -10 -9 -22 -8 -13 1 -28 -5 -35 -14 -11 -13 -12 -13 -13 2 0 12 -5 15 -17
11 -13 -5 -15 -2 -10 11 5 11 3 15 -5 10 -6 -4 -16 0 -22 9 -7 8 -23 17 -36
19 -14 2 -24 9 -22 16 1 7 -8 12 -22 12 -14 0 -28 5 -32 12 -5 7 -2 9 9 5 8
-3 18 0 20 7 5 13 -20 15 -38 4 -6 -3 -19 0 -30 8 -19 14 -19 14 1 15 10 1 24
2 29 4 6 1 43 3 83 3 39 1 72 6 72 11 0 6 -9 8 -20 6 -11 -2 -51 -5 -88 -6
-75 -2 -152 -26 -130 -40 9 -7 8 -9 -7 -7 -53 4 -60 -1 -60 -39 0 -20 6 -38
13 -41 7 -2 10 -8 7 -12 -3 -5 0 -18 7 -29 11 -19 14 -19 30 -4 11 10 18 12
18 5 0 -7 -5 -12 -11 -12 -6 0 -8 -7 -5 -16 4 -12 2 -15 -9 -10 -11 4 -15 -1
-15 -16 0 -17 -3 -19 -12 -10 -8 8 -8 15 1 26 8 9 9 16 2 21 -6 3 -13 -11 -17
-37 -7 -42 -8 -42 -16 -16 -7 21 -6 32 6 44 21 20 20 34 -1 35 -12 0 -13 2 -5
6 10 4 8 8 -5 18 -14 11 -16 16 -5 26 16 17 15 26 -4 33 -12 5 -14 1 -8 -16 5
-17 3 -20 -10 -15 -9 4 -16 2 -16 -3 0 -6 5 -10 10 -10 6 0 10 -7 10 -15 0 -8
-4 -15 -10 -15 -5 0 -10 5 -10 11 0 5 -4 7 -10 4 -5 -3 -10 3 -10 15 0 23 33
58 100 105 34 24 51 47 85 120 23 50 47 105 54 123 14 34 47 47 37 14z m-876
-2 c0 -5 -5 -10 -11 -10 -5 0 -7 5 -4 10 3 6 8 10 11 10 2 0 4 -4 4 -10z m207
-4 c-2 -6 -12 -12 -23 -13 -10 -1 -37 -4 -59 -8 -78 -12 -85 -12 -85 -1 0 12
3 13 77 18 24 2 43 5 43 8 0 3 11 6 25 6 16 1 24 -3 22 -10z m91 -74 c39 -67
72 -136 72 -153 0 -5 -9 -9 -19 -9 -11 0 -23 -6 -28 -12 -5 -9 -11 1 -19 27
-11 41 -33 52 -61 31 -9 -6 -13 -3 -13 8 0 9 6 16 14 16 9 0 12 7 9 20 -3 11
-1 20 5 20 5 0 12 -9 15 -20 3 -11 10 -20 16 -20 8 0 8 6 2 18 -6 9 -12 30
-16 45 -4 22 -10 27 -25 22 -14 -5 -20 -2 -20 9 0 9 7 16 15 16 8 0 15 4 15
10 0 8 -14 8 -93 -5 -17 -3 -52 -8 -77 -10 -25 -3 -57 -6 -72 -9 -16 -2 -28 1
-28 5 0 5 6 10 13 10 18 2 47 6 92 14 22 3 60 7 85 8 25 1 51 8 58 15 7 6 15
12 16 12 2 0 21 -31 44 -68z m-298 42 c0 -8 -5 -12 -10 -9 -6 4 -8 11 -5 16 9
14 15 11 15 -7z m30 6 c0 -5 -4 -10 -10 -10 -5 0 -10 5 -10 10 0 6 5 10 10 10
6 0 10 -4 10 -10z m190 -44 c0 -8 -8 -15 -17 -14 -10 0 -35 -3 -56 -6 -27 -4
-38 -3 -35 6 2 6 23 13 47 14 23 1 45 5 48 8 10 9 13 7 13 -8z m-118 -26 c12
-26 9 -39 -9 -38 -10 1 -29 -2 -42 -6 -17 -6 -22 -5 -19 5 5 14 9 15 49 18 11
0 18 5 14 11 -5 9 -69 5 -86 -6 -5 -3 -9 2 -9 10 0 9 12 16 33 18 53 5 62 4
69 -12z m159 -13 c-13 -13 -26 -3 -16 12 3 6 11 8 17 5 6 -4 6 -10 -1 -17z
m-31 2 c0 -5 -6 -10 -12 -10 -7 -1 -25 -3 -40 -5 -33 -3 -38 13 -5 18 46 7 57
6 57 -3z m-94 -26 c-10 -10 -19 5 -10 18 6 11 8 11 12 0 2 -7 1 -15 -2 -18z
m924 11 c0 -2 -9 -4 -20 -4 -11 0 -20 4 -20 9 0 5 9 7 20 4 11 -3 20 -7 20 -9z
m-1040 -14 c0 -5 -4 -10 -10 -10 -5 0 -10 5 -10 10 0 6 5 10 10 10 6 0 10 -4
10 -10z m220 -6 c0 -10 -6 -14 -14 -11 -7 3 -19 0 -25 -6 -8 -8 -11 -7 -11 5
0 14 13 22 43 27 4 0 7 -6 7 -15z m-60 -9 c0 -8 -4 -15 -10 -15 -5 0 -10 7
-10 15 0 8 5 15 10 15 6 0 10 -7 10 -15z m813 6 c74 -2 35 -18 -48 -20 -50 -1
-85 2 -85 8 0 11 24 17 65 15 17 -1 47 -2 68 -3z m-903 -16 c0 -8 -4 -15 -10
-15 -5 0 -10 7 -10 15 0 8 5 15 10 15 6 0 10 -7 10 -15z m30 0 c0 -8 -4 -15
-10 -15 -5 0 -10 7 -10 15 0 8 5 15 10 15 6 0 10 -7 10 -15z m30 5 c0 -5 -4
-10 -10 -10 -5 0 -10 5 -10 10 0 6 5 10 10 10 6 0 10 -4 10 -10z m700 -5 c0
-8 -4 -15 -10 -15 -5 0 -10 7 -10 15 0 8 5 15 10 15 6 0 10 -7 10 -15z m-850
-5 c0 -5 -5 -10 -11 -10 -5 0 -7 5 -4 10 3 6 8 10 11 10 2 0 4 -4 4 -10z m30
1 c0 -6 -4 -13 -10 -16 -5 -3 -10 1 -10 9 0 9 5 16 10 16 6 0 10 -4 10 -9z
m30 -1 c0 -5 -4 -10 -10 -10 -5 0 -10 5 -10 10 0 6 5 10 10 10 6 0 10 -4 10
-10z m160 -15 c0 -8 -4 -15 -10 -15 -5 0 -10 7 -10 15 0 8 5 15 10 15 6 0 10
-7 10 -15z m-33 -8 c-4 -12 -77 -20 -77 -8 0 13 8 17 45 18 22 0 34 -4 32 -10z
m-155 -19 c-7 -7 -12 -8 -12 -2 0 6 3 14 7 17 3 4 9 5 12 2 2 -3 -1 -11 -7
-17z m38 13 c0 -6 -4 -13 -10 -16 -5 -3 -10 1 -10 9 0 9 5 16 10 16 6 0 10 -4
10 -9z m27 -5 c-3 -8 -1 -16 5 -18 24 -8 -5 -30 -33 -26 -18 3 -28 1 -26 -6 4
-12 64 -12 132 -1 89 14 96 14 92 2 -2 -7 -9 -13 -15 -13 -7 -1 -13 -2 -14 -4
-2 -1 -25 -3 -53 -5 -27 -2 -74 -6 -103 -9 -44 -4 -53 -2 -48 9 3 8 1 17 -5
20 -18 12 2 25 31 21 27 -3 29 -1 24 20 -4 15 -2 24 6 24 7 0 10 -6 7 -14z
m-87 0 c0 -3 -4 -8 -10 -11 -5 -3 -10 -1 -10 4 0 6 5 11 10 11 6 0 10 -2 10
-4z m250 -11 c0 -8 -4 -15 -10 -15 -5 0 -10 7 -10 15 0 8 5 15 10 15 6 0 10
-7 10 -15z m33 -12 c3 -16 1 -32 -4 -37 -6 -6 -9 -5 -9 5 0 7 -3 24 -6 37 -4
12 -2 22 4 22 5 0 12 -12 15 -27z m-93 2 c0 -8 -8 -15 -17 -16 -10 0 -28 -2
-40 -3 -14 -2 -23 3 -23 10 0 9 10 12 30 10 17 -2 30 1 30 5 0 5 5 9 10 9 6 0
10 -7 10 -15z m30 6 c0 -6 -4 -13 -10 -16 -5 -3 -10 1 -10 9 0 9 5 16 10 16 6
0 10 -4 10 -9z m-220 -21 c0 -5 -5 -10 -11 -10 -5 0 -7 5 -4 10 3 6 8 10 11
10 2 0 4 -4 4 -10z m396 -28 c1 -12 -3 -22 -7 -22 -5 0 -9 4 -9 9 0 5 -3 17
-7 27 -4 12 -2 15 8 12 8 -3 15 -14 15 -26z m42 3 c0 -14 -5 -24 -11 -22 -15
5 -16 47 -2 47 7 0 13 -11 13 -25z m42 -5 c0 -5 -4 -10 -10 -10 -5 0 -10 5
-10 10 0 6 5 10 10 10 6 0 10 -4 10 -10z m560 -21 c0 -5 -4 -9 -10 -9 -5 0
-10 7 -10 16 0 8 5 12 10 9 6 -3 10 -10 10 -16z m-803 -3 c-2 -6 -19 -12 -38
-13 -86 -6 -116 -10 -127 -17 -7 -4 -12 -1 -12 8 0 9 8 16 18 17 58 2 103 7
106 10 10 10 57 6 53 -5z m113 -6 c0 -5 -4 -10 -10 -10 -5 0 -10 5 -10 10 0 6
5 10 10 10 6 0 10 -4 10 -10z m130 0 c0 -5 -7 -10 -15 -10 -8 0 -15 5 -15 10
0 6 7 10 15 10 8 0 15 -4 15 -10z m-430 -9 c0 -6 -4 -13 -10 -16 -5 -3 -10 1
-10 9 0 9 5 16 10 16 6 0 10 -4 10 -9z m650 -1 c0 -5 -2 -10 -4 -10 -3 0 -8 5
-11 10 -3 6 -1 10 4 10 6 0 11 -4 11 -10z m-196 -21 c-3 -5 -10 -7 -15 -3 -5
3 -7 10 -3 15 3 5 10 7 15 3 5 -3 7 -10 3 -15z m-324 1 c0 -5 -4 -10 -10 -10
-5 0 -10 5 -10 10 0 6 5 10 10 10 6 0 10 -4 10 -10z m280 0 c0 -5 -4 -10 -10
-10 -5 0 -10 5 -10 10 0 6 5 10 10 10 6 0 10 -4 10 -10z m-370 -15 c0 -8 -4
-15 -10 -15 -5 0 -10 7 -10 15 0 8 5 15 10 15 6 0 10 -7 10 -15z m30 6 c0 -6
-4 -13 -10 -16 -5 -3 -10 1 -10 9 0 9 5 16 10 16 6 0 10 -4 10 -9z m30 0 c0
-6 -4 -13 -10 -16 -5 -3 -10 1 -10 9 0 9 5 16 10 16 6 0 10 -4 10 -9z m155 -1
c-3 -5 -12 -10 -18 -10 -7 0 -6 4 3 10 19 12 23 12 15 0z m395 0 c0 -5 -5 -10
-11 -10 -5 0 -7 5 -4 10 3 6 8 10 11 10 2 0 4 -4 4 -10z m-645 -10 c-3 -5 -11
-10 -16 -10 -6 0 -7 5 -4 10 3 6 11 10 16 10 6 0 7 -4 4 -10z m469 -5 c-4 -8
-10 -15 -15 -15 -4 0 -6 7 -3 15 4 8 10 15 15 15 4 0 6 -7 3 -15z m-193 -22
c-12 -20 -14 -14 -5 12 4 9 9 14 11 11 3 -2 0 -13 -6 -23z m101 20 c-6 -2 -10
-9 -6 -14 3 -5 0 -9 -5 -9 -12 0 -14 13 -4 23 3 4 11 7 17 6 6 0 5 -3 -2 -6z
m-55 -16 c0 -7 -6 -18 -14 -25 -16 -15 -17 -8 -3 19 12 22 17 24 17 6z m-325
-19 c-7 -7 -12 -8 -12 -2 0 14 12 26 19 19 2 -3 -1 -11 -7 -17z m48 12 c0 -5
-7 -10 -15 -10 -8 0 -15 5 -15 10 0 6 7 10 15 10 8 0 15 -4 15 -10z m202 -18
c-7 -2 -12 -10 -12 -18 0 -8 -4 -14 -10 -14 -13 0 -13 6 2 29 7 11 17 17 22
14 6 -4 5 -8 -2 -11z m203 8 c3 -5 1 -10 -4 -10 -6 0 -11 5 -11 10 0 6 2 10 4
10 3 0 8 -4 11 -10z m-375 -10 c0 -5 -2 -10 -4 -10 -3 0 -8 5 -11 10 -3 6 -1
10 4 10 6 0 11 -4 11 -10z m130 6 c0 -11 -19 -15 -25 -6 -3 5 1 10 9 10 9 0
16 -2 16 -4z m160 -2 c0 -3 -7 -12 -15 -21 -20 -19 -32 -10 -14 11 14 15 29
21 29 10z m120 -10 c0 -8 -4 -12 -10 -9 -5 3 -10 10 -10 16 0 5 5 9 10 9 6 0
10 -7 10 -16z m89 -11 c2 -2 -5 -3 -17 -3 -14 0 -22 6 -22 16 0 14 3 15 18 3
9 -7 19 -15 21 -16z m-464 8 c3 -5 1 -12 -5 -16 -5 -3 -10 1 -10 9 0 18 6 21
15 7z m295 -1 c0 -5 -4 -10 -10 -10 -5 0 -10 5 -10 10 0 6 5 10 10 10 6 0 10
-4 10 -10z m380 6 c0 -3 -4 -8 -10 -11 -5 -3 -10 -1 -10 4 0 6 5 11 10 11 6 0
10 -2 10 -4z m214 -7 c3 -3 -4 -5 -14 -6 -11 -1 -22 2 -25 8 -6 9 30 7 39 -2z
m-730 -14 c-4 -8 -11 -15 -16 -15 -6 0 -5 6 2 15 7 8 14 15 16 15 2 0 1 -7 -2
-15z m166 5 c0 -5 -4 -10 -10 -10 -5 0 -10 5 -10 10 0 6 5 10 10 10 6 0 10 -4
10 -10z m280 6 c0 -3 -4 -8 -10 -11 -5 -3 -10 -1 -10 4 0 6 5 11 10 11 6 0 10
-2 10 -4z m100 -6 c0 -5 -5 -10 -11 -10 -5 0 -7 5 -4 10 3 6 8 10 11 10 2 0 4
-4 4 -10z m-736 -21 c-3 -5 -10 -7 -15 -3 -5 3 -7 10 -3 15 3 5 10 7 15 3 5
-3 7 -10 3 -15z m126 11 c0 -5 -4 -10 -10 -10 -5 0 -10 5 -10 10 0 6 5 10 10
10 6 0 10 -4 10 -10z m260 0 c0 -5 -5 -10 -11 -10 -5 0 -7 5 -4 10 3 6 8 10
11 10 2 0 4 -4 4 -10z m-80 -10 c0 -5 -4 -10 -9 -10 -6 0 -13 5 -16 10 -3 6 1
10 9 10 9 0 16 -4 16 -10z m105 1 c3 -5 1 -12 -5 -16 -5 -3 -10 1 -10 9 0 18
6 21 15 7z m85 -7 c0 -2 -7 -4 -15 -4 -8 0 -15 4 -15 10 0 5 7 7 15 4 8 -4 15
-8 15 -10z m310 7 c0 -6 -4 -13 -10 -16 -5 -3 -10 1 -10 9 0 9 5 16 10 16 6 0
10 -4 10 -9z m70 5 c0 -3 -4 -8 -10 -11 -5 -3 -10 -1 -10 4 0 6 5 11 10 11 6
0 10 -2 10 -4z m-970 -16 c0 -5 -2 -10 -4 -10 -3 0 -8 5 -11 10 -3 6 -1 10 4
10 6 0 11 -4 11 -10z m131 -3 c-1 -12 -15 -9 -19 4 -3 6 1 10 8 8 6 -3 11 -8
11 -12z m123 -8 c-3 -5 -10 -7 -15 -3 -5 3 -7 10 -3 15 3 5 10 7 15 3 5 -3 7
-10 3 -15z m176 11 c0 -5 -4 -10 -10 -10 -5 0 -10 5 -10 10 0 6 5 10 10 10 6
0 10 -4 10 -10z m370 6 c0 -11 -19 -15 -25 -6 -3 5 1 10 9 10 9 0 16 -2 16 -4z
m-760 -16 c0 -5 -4 -10 -10 -10 -5 0 -10 5 -10 10 0 6 5 10 10 10 6 0 10 -4
10 -10z m292 -30 c-13 -14 -22 -18 -27 -11 -3 6 1 14 9 17 9 3 16 13 16 22 0
12 3 13 11 5 8 -8 6 -17 -9 -33z m42 25 c3 -8 12 -12 21 -9 8 3 15 1 15 -5 0
-6 -7 -11 -15 -11 -8 0 -18 0 -22 -1 -4 0 -10 9 -15 20 -4 12 -3 21 1 21 5 0
11 -7 15 -15z m86 -1 c0 -8 -5 -12 -10 -9 -6 4 -8 11 -5 16 9 14 15 11 15 -7z
m270 6 c0 -5 -7 -10 -16 -10 -8 0 -12 5 -9 10 3 6 10 10 16 10 5 0 9 -4 9 -10z
m100 0 c0 -5 -4 -10 -10 -10 -5 0 -10 5 -10 10 0 6 5 10 10 10 6 0 10 -4 10
-10z m100 0 c0 -5 -4 -10 -10 -10 -5 0 -10 5 -10 10 0 6 5 10 10 10 6 0 10 -4
10 -10z m70 6 c0 -3 -4 -8 -10 -11 -5 -3 -10 -1 -10 4 0 6 5 11 10 11 6 0 10
-2 10 -4z m-930 -16 c0 -5 -4 -10 -10 -10 -5 0 -10 5 -10 10 0 6 5 10 10 10 6
0 10 -4 10 -10z m100 -12 c0 -5 -6 -8 -14 -5 -8 3 -17 -1 -20 -9 -3 -9 -10
-12 -16 -9 -16 10 -12 19 13 31 24 11 37 9 37 -8z m50 12 c0 -5 -4 -10 -10
-10 -5 0 -10 5 -10 10 0 6 5 10 10 10 6 0 10 -4 10 -10z m70 -5 c0 -8 -4 -15
-10 -15 -5 0 -10 7 -10 15 0 8 5 15 10 15 6 0 10 -7 10 -15z m333 -46 c5 -4 6
-12 2 -18 -4 -8 -14 1 -26 24 -11 20 -16 41 -12 48 4 7 10 0 16 -18 6 -17 14
-33 20 -36z m129 39 c-7 -7 -12 -8 -12 -2 0 14 12 26 19 19 2 -3 -1 -11 -7
-17z m147 6 c3 -2 -1 -10 -7 -16 -9 -9 -13 -7 -17 5 -4 9 -13 13 -21 10 -8 -3
-14 0 -14 7 0 8 9 10 27 5 16 -4 30 -9 32 -11z m-894 -3 c3 -5 1 -12 -5 -16
-5 -3 -10 1 -10 9 0 18 6 21 15 7z m95 -1 c0 -5 -5 -10 -11 -10 -5 0 -7 5 -4
10 3 6 8 10 11 10 2 0 4 -4 4 -10z m430 0 c0 -5 -4 -10 -10 -10 -5 0 -10 5
-10 10 0 6 5 10 10 10 6 0 10 -4 10 -10z m156 -17 c-10 -10 -19 5 -10 18 6 11
8 11 12 0 2 -7 1 -15 -2 -18z m105 4 c-13 -13 -26 -3 -16 12 3 6 11 8 17 5 6
-4 6 -10 -1 -17z m169 13 c0 -5 -4 -10 -10 -10 -5 0 -10 5 -10 10 0 6 5 10 10
10 6 0 10 -4 10 -10z m-700 -19 c0 -5 -10 -9 -22 -9 -13 0 -29 -1 -37 -3 -7
-2 -15 1 -18 7 -2 7 6 10 22 9 14 -2 27 1 31 6 6 10 24 3 24 -10z m566 -8
c-10 -10 -19 5 -10 18 6 11 8 11 12 0 2 -7 1 -15 -2 -18z m-776 7 c0 -5 -7
-10 -15 -10 -8 0 -15 5 -15 10 0 6 7 10 15 10 8 0 15 -4 15 -10z m394 -6 c3
-8 2 -12 -4 -9 -6 3 -10 10 -10 16 0 14 7 11 14 -7z m286 8 c0 -13 -12 -22
-22 -16 -10 6 -1 24 13 24 5 0 9 -4 9 -8z m164 -33 c-8 -14 -24 -10 -24 6 0 9
-6 12 -15 9 -15 -6 -21 7 -9 19 9 9 55 -24 48 -34z m36 33 c0 -13 -12 -22 -22
-16 -10 6 -1 24 13 24 5 0 9 -4 9 -8z m70 -2 c0 -5 -4 -10 -10 -10 -5 0 -10 5
-10 10 0 6 5 10 10 10 6 0 10 -4 10 -10z m-920 -15 c0 -8 -4 -15 -10 -15 -5 0
-10 7 -10 15 0 8 5 15 10 15 6 0 10 -7 10 -15z m90 -1 c0 -10 -6 -14 -15 -10
-9 3 -15 0 -15 -9 0 -8 -4 -15 -10 -15 -16 0 -12 22 8 36 23 18 32 17 32 -2z
m121 3 c-1 -12 -15 -9 -19 4 -3 6 1 10 8 8 6 -3 11 -8 11 -12z m69 3 c0 -5 -4
-10 -10 -10 -5 0 -10 5 -10 10 0 6 5 10 10 10 6 0 10 -4 10 -10z m300 1 c0 -6
-4 -13 -10 -16 -5 -3 -10 1 -10 9 0 9 5 16 10 16 6 0 10 -4 10 -9z m100 -6 c0
-8 -4 -15 -10 -15 -5 0 -10 7 -10 15 0 8 5 15 10 15 6 0 10 -7 10 -15z m-746
-16 c-3 -5 -10 -7 -15 -3 -5 3 -7 10 -3 15 3 5 10 7 15 3 5 -3 7 -10 3 -15z
m96 6 c0 -8 -4 -15 -10 -15 -5 0 -10 7 -10 15 0 8 5 15 10 15 6 0 10 -7 10
-15z m466 6 c-3 -5 1 -14 9 -21 8 -7 12 -16 9 -22 -3 -5 -12 -4 -20 3 -7 6
-11 15 -8 20 3 5 -5 13 -18 18 -22 9 -22 10 5 10 16 1 26 -3 23 -8z m215 -14
c-13 -13 -26 -3 -16 12 3 6 11 8 17 5 6 -4 6 -10 -1 -17z m169 8 c0 -8 -4 -15
-10 -15 -5 0 -10 7 -10 15 0 8 5 15 10 15 6 0 10 -7 10 -15z m-700 -5 c0 -5
-4 -10 -10 -10 -5 0 -10 5 -10 10 0 6 5 10 10 10 6 0 10 -4 10 -10z m70 0 c0
-5 -4 -10 -10 -10 -5 0 -10 5 -10 10 0 6 5 10 10 10 6 0 10 -4 10 -10z m70 0
c0 -5 -4 -10 -9 -10 -6 0 -13 5 -16 10 -3 6 1 10 9 10 9 0 16 -4 16 -10z m290
0 c0 -5 -4 -10 -10 -10 -5 0 -10 5 -10 10 0 6 5 10 10 10 6 0 10 -4 10 -10z
m140 -1 c0 -6 7 -9 15 -5 9 3 15 0 15 -10 0 -13 -6 -15 -27 -9 -34 8 -37 11
-28 24 8 14 25 14 25 0z m-780 -8 c0 -6 -4 -13 -10 -16 -5 -3 -10 1 -10 9 0 9
5 16 10 16 6 0 10 -4 10 -9z m180 0 c0 -4 -11 -8 -25 -9 -14 -1 -25 2 -25 7 0
5 11 9 25 9 14 0 25 -3 25 -7z m239 -7 c2 -2 1 -7 -2 -11 -4 -4 -12 -2 -18 4
-6 6 -18 9 -25 6 -8 -3 -14 0 -14 7 0 8 9 10 27 5 16 -4 30 -9 32 -11z m261 7
c0 -12 -20 -25 -27 -18 -7 7 6 27 18 27 5 0 9 -4 9 -9z m191 -14 c-13 -13 -26
-3 -16 12 3 6 11 8 17 5 6 -4 6 -10 -1 -17z m69 7 c0 -8 -5 -12 -10 -9 -6 4
-8 11 -5 16 9 14 15 11 15 -7z m-900 -15 c0 -5 -7 -9 -15 -9 -15 0 -20 12 -9
23 8 8 24 -1 24 -14z m82 6 c0 -5 -5 -11 -11 -13 -6 -2 -11 4 -11 13 0 9 5 15
11 13 6 -2 11 -8 11 -13z m125 3 c-2 -7 -10 -12 -16 -10 -6 1 -11 -2 -11 -8 0
-5 -11 -10 -25 -10 -31 0 -34 15 -4 17 12 1 27 7 32 12 15 15 30 14 24 -1z
m73 2 c0 -5 -4 -10 -9 -10 -6 0 -13 5 -16 10 -3 6 1 10 9 10 9 0 16 -4 16 -10z
m203 -33 c16 -13 18 -20 9 -29 -9 -9 -12 -8 -12 5 0 9 -6 17 -14 17 -17 0 -29
27 -19 43 4 7 8 6 11 -3 3 -8 14 -23 25 -33z m87 35 c0 -13 -12 -22 -22 -16
-10 6 -1 24 13 24 5 0 9 -4 9 -8z m100 -7 c0 -8 -7 -15 -15 -15 -9 0 -12 6 -9
15 4 8 10 15 15 15 5 0 9 -7 9 -15z m-740 -16 c0 -5 -4 -9 -10 -9 -5 0 -10 7
-10 16 0 8 5 12 10 9 6 -3 10 -10 10 -16z m311 -2 c-13 -13 -26 -3 -16 12 3 6
11 8 17 5 6 -4 6 -10 -1 -17z m70 0 c-13 -13 -26 -3 -16 12 3 6 11 8 17 5 6
-4 6 -10 -1 -17z m109 13 c0 -5 -7 -10 -16 -10 -8 0 -12 5 -9 10 3 6 10 10 16
10 5 0 9 -4 9 -10z m280 -5 c0 -8 -4 -15 -10 -15 -5 0 -10 7 -10 15 0 8 5 15
10 15 6 0 10 -7 10 -15z m170 -6 c0 -5 -7 -9 -15 -9 -15 0 -20 12 -9 23 8 8
24 -1 24 -14z m-840 0 c0 -5 5 -7 10 -4 6 3 10 -1 10 -9 0 -14 -3 -14 -20 -4
-21 14 -27 28 -10 28 6 0 10 -5 10 -11z m90 -10 c0 -5 -7 -9 -15 -9 -15 0 -20
12 -9 23 8 8 24 -1 24 -14z m411 -2 c-13 -13 -26 -3 -16 12 3 6 11 8 17 5 6
-4 6 -10 -1 -17z m69 15 c0 -13 -12 -22 -22 -16 -10 6 -1 24 13 24 5 0 9 -4 9
-8z m153 -8 c19 -7 18 -25 -1 -32 -7 -2 -12 3 -12 12 0 10 -6 13 -15 10 -10
-4 -15 0 -15 11 0 10 5 14 13 11 6 -3 20 -9 30 -12z m47 6 c0 -5 -4 -10 -10
-10 -5 0 -10 5 -10 10 0 6 5 10 10 10 6 0 10 -4 10 -10z m-836 -9 c3 -5 -5
-16 -19 -25 -14 -9 -25 -12 -25 -6 0 5 5 10 10 10 6 0 10 7 10 15 0 16 16 20
24 6z m316 -6 c0 -8 -4 -15 -9 -15 -13 0 -22 16 -14 24 11 11 23 6 23 -9z m70
5 c0 -5 -4 -10 -10 -10 -5 0 -10 5 -10 10 0 6 5 10 10 10 6 0 10 -4 10 -10z
m281 -13 c-13 -13 -26 -3 -16 12 3 6 11 8 17 5 6 -4 6 -10 -1 -17z m-522 -17
c6 0 11 -5 11 -11 0 -6 -6 -8 -12 -5 -7 3 -21 9 -30 12 -19 7 -23 16 -11 28 4
4 13 0 19 -8 6 -9 16 -16 23 -16z m101 20 c0 -5 -4 -10 -10 -10 -5 0 -10 5
-10 10 0 6 5 10 10 10 6 0 10 -4 10 -10z m180 0 c0 -5 -7 -10 -16 -10 -8 0
-12 5 -9 10 3 6 10 10 16 10 5 0 9 -4 9 -10z m47 -10 c-2 -11 -7 -23 -12 -27
-4 -5 -5 -2 -1 5 5 7 1 12 -10 12 -13 0 -14 3 -4 15 17 21 30 19 27 -5z m133
-1 c0 -5 -7 -9 -15 -9 -15 0 -20 12 -9 23 8 8 24 -1 24 -14z m116 8 c8 3 14 0
14 -6 0 -6 6 -8 14 -5 17 6 31 -12 16 -21 -11 -7 -90 15 -90 25 0 13 14 20 23
11 5 -5 16 -7 23 -4z m144 5 c0 -13 -12 -22 -22 -16 -10 6 -1 24 13 24 5 0 9
-4 9 -8z m70 -2 c0 -5 -4 -10 -10 -10 -5 0 -10 5 -10 10 0 6 5 10 10 10 6 0
10 -4 10 -10z m-900 -15 c0 -8 -4 -15 -10 -15 -5 0 -10 7 -10 15 0 8 5 15 10
15 6 0 10 -7 10 -15z m150 -6 c0 -5 -4 -9 -10 -9 -5 0 -10 7 -10 16 0 8 5 12
10 9 6 -3 10 -10 10 -16z m30 0 c0 -5 -4 -9 -10 -9 -5 0 -10 7 -10 16 0 8 5
12 10 9 6 -3 10 -10 10 -16z m70 0 c0 -5 -7 -9 -15 -9 -15 0 -20 12 -9 23 8 8
24 -1 24 -14z m70 11 c0 -5 -6 -10 -14 -10 -8 0 -17 -7 -20 -16 -3 -8 -10 -12
-16 -9 -15 9 -12 25 5 25 8 0 15 5 15 10 0 6 7 10 15 10 8 0 15 -4 15 -10z
m-293 -22 c-3 -8 -6 -5 -6 6 -1 11 2 17 5 13 3 -3 4 -12 1 -19z m573 7 c0 -8
-4 -15 -9 -15 -13 0 -22 16 -14 24 11 11 23 6 23 -9z m192 0 c0 -5 -5 -11 -11
-13 -6 -2 -11 4 -11 13 0 9 5 15 11 13 6 -2 11 -8 11 -13z m68 6 c0 -6 -4 -13
-10 -16 -5 -3 -10 1 -10 9 0 9 5 16 10 16 6 0 10 -4 10 -9z m-893 -27 c-9 -9
-28 6 -21 18 4 6 10 6 17 -1 6 -6 8 -13 4 -17z m252 1 c-3 -2 -16 -6 -30 -7
-13 -2 -27 -7 -30 -12 -4 -5 -12 -5 -18 -2 -19 12 -12 24 15 24 14 0 31 5 37
11 7 7 14 8 21 1 5 -5 7 -12 5 -15z m136 15 c-3 -5 -10 -10 -16 -10 -5 0 -9 5
-9 10 0 6 7 10 16 10 8 0 12 -4 9 -10z m115 1 c0 -6 -4 -13 -10 -16 -5 -3 -10
1 -10 9 0 9 5 16 10 16 6 0 10 -4 10 -9z m65 -1 c4 -6 10 -8 15 -5 14 8 23
-16 11 -28 -7 -7 -12 -6 -17 6 -3 9 -12 17 -20 17 -8 0 -14 5 -14 10 0 13 17
13 25 0z m96 -13 c-13 -13 -26 -3 -16 12 3 6 11 8 17 5 6 -4 6 -10 -1 -17z
m-571 3 c0 -5 -4 -10 -10 -10 -5 0 -10 5 -10 10 0 6 5 10 10 10 6 0 10 -4 10
-10z m349 -2 c-4 -33 3 -49 26 -58 20 -8 25 -16 25 -45 0 -26 -4 -35 -17 -35
-22 0 -53 29 -53 51 0 10 -12 27 -27 38 -14 12 -23 24 -19 28 4 4 10 3 14 -2
9 -13 42 -16 42 -4 0 5 -7 12 -15 15 -22 9 -18 24 5 24 12 0 20 -6 19 -12z
m252 -11 c-13 -13 -26 -3 -16 12 3 6 11 8 17 5 6 -4 6 -10 -1 -17z m99 8 c0
-8 -4 -15 -9 -15 -13 0 -22 16 -14 24 11 11 23 6 23 -9z m61 -8 c-13 -13 -26
-3 -16 12 3 6 11 8 17 5 6 -4 6 -10 -1 -17z m69 7 c0 -8 -4 -12 -10 -9 -5 3
-10 10 -10 16 0 5 5 9 10 9 6 0 10 -7 10 -16z m-880 -1 c0 -13 -47 -53 -54
-46 -11 11 -7 23 8 23 8 0 16 7 20 15 5 15 26 21 26 8z m80 -2 c0 -6 -4 -13
-10 -16 -5 -3 -10 1 -10 9 0 9 5 16 10 16 6 0 10 -4 10 -9z m162 -6 c0 -5 -5
-11 -11 -13 -6 -2 -11 4 -11 13 0 9 5 15 11 13 6 -2 11 -8 11 -13z m68 5 c0
-5 -4 -10 -10 -10 -5 0 -10 5 -10 10 0 6 5 10 10 10 6 0 10 -4 10 -10z m180
-5 c0 -8 -4 -15 -9 -15 -13 0 -22 16 -14 24 11 11 23 6 23 -9z m200 4 c0 -5 4
-8 9 -4 12 7 24 -12 16 -25 -4 -6 -14 -5 -28 3 -12 6 -24 13 -26 14 -1 1 0 6
4 12 8 14 25 14 25 0z m-260 -9 c0 -5 -4 -10 -10 -10 -5 0 -10 5 -10 10 0 6 5
10 10 10 6 0 10 -4 10 -10z m178 -13 c6 3 12 1 12 -4 0 -18 -12 -22 -34 -10
-11 7 -23 13 -25 14 -1 1 0 7 5 14 5 9 10 8 18 -3 6 -8 17 -13 24 -11z m242
14 c0 -12 -20 -25 -27 -18 -7 7 6 27 18 27 5 0 9 -4 9 -9z m-820 -11 c0 -5 -4
-10 -10 -10 -5 0 -10 5 -10 10 0 6 5 10 10 10 6 0 10 -4 10 -10z m88 -1 c-2
-6 -8 -10 -13 -10 -5 0 -11 4 -13 10 -2 6 4 11 13 11 9 0 15 -5 13 -11z m93
-2 c-1 -12 -15 -9 -19 4 -3 6 1 10 8 8 6 -3 11 -8 11 -12z m69 -2 c0 -8 -4
-15 -9 -15 -13 0 -22 16 -14 24 11 11 23 6 23 -9z m171 -8 c-13 -13 -26 -3
-16 12 3 6 11 8 17 5 6 -4 6 -10 -1 -17z m69 8 c0 -8 -7 -15 -15 -15 -16 0
-20 12 -8 23 11 12 23 8 23 -8z m260 5 c0 -5 -4 -10 -10 -10 -5 0 -10 5 -10
10 0 6 5 10 10 10 6 0 10 -4 10 -10z m-600 -16 c0 -8 -4 -12 -10 -9 -5 3 -10
10 -10 16 0 5 5 9 10 9 6 0 10 -7 10 -16z m466 -11 c-10 -10 -19 5 -10 18 6
11 8 11 12 0 2 -7 1 -15 -2 -18z m230 0 c-10 -10 -19 5 -10 18 6 11 8 11 12 0
2 -7 1 -15 -2 -18z m-800 -10 c-10 -10 -19 5 -10 18 6 11 8 11 12 0 2 -7 1
-15 -2 -18z m74 12 c0 -8 -4 -15 -9 -15 -13 0 -22 16 -14 24 11 11 23 6 23 -9z
m97 -11 c-3 -3 -17 -7 -31 -8 -14 0 -28 -7 -31 -14 -3 -7 -9 -10 -15 -7 -18
11 -10 23 20 30 16 4 33 11 36 17 4 6 10 6 17 -1 6 -6 8 -13 4 -17z m71 15
c-2 -6 -8 -10 -13 -10 -5 0 -11 4 -13 10 -2 6 4 11 13 11 9 0 15 -5 13 -11z
m167 -19 c-5 -8 -11 -8 -17 -2 -6 6 -7 16 -3 22 5 8 11 8 17 2 6 -6 7 -16 3
-22z m88 14 c9 -4 17 -10 17 -14 0 -4 14 -6 30 -4 17 2 30 -1 30 -7 0 -6 7 -9
15 -6 18 8 31 -11 17 -25 -8 -8 -15 -8 -24 -1 -7 6 -32 17 -55 24 -24 6 -43
16 -43 21 0 5 -4 6 -10 3 -5 -3 -15 -3 -20 0 -14 9 -1 28 13 21 7 -4 20 -9 30
-12z m147 -16 c0 -13 -24 -22 -28 -10 -2 7 -10 12 -18 12 -14 0 -19 12 -9 22
7 7 55 -14 55 -24z m28 21 c-2 -6 -8 -10 -13 -10 -5 0 -11 4 -13 10 -2 6 4 11
13 11 9 0 15 -5 13 -11z m62 2 c0 -6 -4 -13 -10 -16 -5 -3 -10 1 -10 9 0 9 5
16 10 16 6 0 10 -4 10 -9z m-810 -11 c0 -5 -4 -10 -10 -10 -5 0 -10 5 -10 10
0 6 5 10 10 10 6 0 10 -4 10 -10z m30 -16 c0 -8 -5 -12 -10 -9 -6 4 -8 11 -5
16 9 14 15 11 15 -7z m82 1 c0 -5 -5 -11 -11 -13 -6 -2 -11 4 -11 13 0 9 5 15
11 13 6 -2 11 -8 11 -13z m175 -11 c-9 -9 -28 6 -21 18 4 6 10 6 17 -1 6 -6 8
-13 4 -17z m228 -4 c-5 -8 -11 -8 -17 -2 -6 6 -7 16 -3 22 5 8 11 8 17 2 6 -6
7 -16 3 -22z m263 18 c-6 -18 -28 -21 -28 -4 0 9 7 16 16 16 9 0 14 -5 12 -12z
m72 2 c0 -5 7 -10 15 -10 8 0 15 -4 15 -10 0 -5 -7 -10 -15 -10 -8 0 -15 5
-15 10 0 6 -7 10 -15 10 -8 0 -15 5 -15 10 0 6 7 10 15 10 8 0 15 -4 15 -10z
m-880 -15 c0 -8 -4 -15 -9 -15 -13 0 -22 16 -14 24 11 11 23 6 23 -9z m391 -1
c12 -15 23 -94 12 -94 -2 0 -11 6 -19 14 -12 13 -12 16 1 24 12 6 14 14 7 33
-5 13 -13 23 -18 21 -5 -2 -10 1 -12 7 -6 17 14 13 29 -5z m-301 -4 c0 -5 -4
-10 -10 -10 -5 0 -10 5 -10 10 0 6 5 10 10 10 6 0 10 -4 10 -10z m90 -5 c0 -8
-7 -15 -15 -15 -16 0 -20 12 -8 23 11 12 23 8 23 -8z m105 5 c3 -5 -1 -10 -9
-10 -9 0 -16 5 -16 10 0 6 4 10 9 10 6 0 13 -4 16 -10z m69 -11 c-3 -5 -10 -7
-15 -3 -5 3 -7 10 -3 15 3 5 10 7 15 3 5 -3 7 -10 3 -15z m240 6 c11 -8 16
-18 12 -22 -4 -4 -11 -1 -15 6 -6 9 -11 10 -15 2 -10 -16 -26 -4 -19 14 6 18
13 18 37 0z m176 0 c0 -8 -4 -15 -10 -15 -5 0 -10 7 -10 15 0 8 5 15 10 15 6
0 10 -7 10 -15z m70 0 c0 -8 -7 -15 -15 -15 -16 0 -20 12 -8 23 11 12 23 8 23
-8z m-808 -10 c0 -5 -5 -11 -11 -13 -6 -2 -11 4 -11 13 0 9 5 15 11 13 6 -2
11 -8 11 -13z m75 -7 c-3 -8 -6 -5 -6 6 -1 11 2 17 5 13 3 -3 4 -12 1 -19z
m143 6 c0 -10 -6 -14 -14 -11 -8 3 -17 -1 -20 -10 -4 -8 -13 -13 -20 -10 -8 3
-17 -1 -20 -9 -7 -17 -26 -19 -26 -1 0 6 19 22 43 33 53 27 57 28 57 8z m268
4 c-6 -18 -28 -21 -28 -4 0 9 7 16 16 16 9 0 14 -5 12 -12z m-457 -21 c-13
-13 -26 -3 -16 12 3 6 11 8 17 5 6 -4 6 -10 -1 -17z m259 13 c0 -5 -4 -10 -10
-10 -5 0 -10 5 -10 10 0 6 5 10 10 10 6 0 10 -4 10 -10z m416 -27 c-11 -11
-19 6 -11 24 8 17 8 17 12 0 3 -10 2 -21 -1 -24z m134 22 c0 -8 -7 -15 -15
-15 -16 0 -20 12 -8 23 11 12 23 8 23 -8z m-879 -18 c-13 -13 -26 -3 -16 12 3
6 11 8 17 5 6 -4 6 -10 -1 -17z m149 7 c0 -8 -4 -12 -10 -9 -5 3 -10 10 -10
16 0 5 5 9 10 9 6 0 10 -7 10 -16z m146 1 c4 -8 12 -15 20 -15 16 0 19 -16 4
-25 -6 -3 -13 1 -16 9 -3 9 -12 16 -20 16 -8 0 -14 7 -14 15 0 8 5 15 10 15 6
0 13 -7 16 -15z m90 -13 c-7 -11 -46 -4 -46 8 0 12 33 18 44 9 4 -4 5 -12 2
-17z m172 16 c-6 -18 -28 -21 -28 -4 0 9 7 16 16 16 9 0 14 -5 12 -12z m127
-28 c0 -20 -6 -35 -14 -38 -10 -3 -12 1 -8 18 8 29 -1 50 -19 43 -8 -3 -14 0
-14 6 0 7 11 10 28 8 23 -3 27 -8 27 -37z m125 31 c0 -6 -4 -13 -10 -16 -5 -3
-10 1 -10 9 0 9 5 16 10 16 6 0 10 -4 10 -9z m-710 -17 c0 -8 -5 -12 -10 -9
-6 4 -8 11 -5 16 9 14 15 11 15 -7z m806 -11 c-10 -10 -19 5 -10 18 6 11 8 11
12 0 2 -7 1 -15 -2 -18z m-866 2 c0 -8 -7 -15 -15 -15 -16 0 -20 12 -8 23 11
12 23 8 23 -8z m220 3 c0 -15 -49 -40 -62 -32 -13 8 2 26 17 20 7 -2 16 2 19
10 7 17 26 19 26 2z m184 -3 c3 -8 1 -15 -4 -15 -6 0 -10 7 -10 15 0 8 2 15 4
15 2 0 6 -7 10 -15z m71 -15 c-5 -8 -11 -8 -17 -2 -6 6 -7 16 -3 22 5 8 11 8
17 2 6 -6 7 -16 3 -22z m73 19 c-5 -14 -21 -14 -26 0 -2 6 4 11 13 11 9 0 15
-5 13 -11z m137 2 c7 -12 -12 -24 -25 -16 -11 7 -4 25 10 25 5 0 11 -4 15 -9z
m55 0 c0 -6 -4 -13 -10 -16 -5 -3 -10 1 -10 9 0 9 5 16 10 16 6 0 10 -4 10 -9z
m83 -7 c19 -7 22 -20 7 -29 -6 -3 -13 0 -16 9 -3 8 -12 12 -20 9 -9 -3 -14 1
-14 12 0 10 5 14 13 11 6 -3 20 -9 30 -12z m-243 -2 c0 -13 -12 -22 -22 -16
-10 6 -1 24 13 24 5 0 9 -4 9 -8z m-550 -17 c0 -8 -4 -15 -10 -15 -5 0 -10 7
-10 15 0 8 5 15 10 15 6 0 10 -7 10 -15z m81 -8 c-13 -13 -26 -3 -16 12 3 6
11 8 17 5 6 -4 6 -10 -1 -17z m358 -7 c15 0 10 -22 -7 -28 -7 -2 -12 3 -12 12
0 9 -6 13 -14 10 -16 -6 -30 11 -21 27 5 7 13 5 24 -5 10 -9 23 -16 30 -16z
m81 -2 c0 -4 7 -5 15 -2 8 4 15 1 15 -5 0 -6 7 -8 15 -5 8 4 15 2 15 -3 0 -19
-12 -21 -37 -8 -14 7 -32 11 -39 8 -9 -3 -14 2 -14 12 0 14 -3 15 -14 6 -15
-13 -32 1 -22 18 7 10 66 -9 66 -21z m60 24 c0 -13 -12 -22 -22 -16 -10 6 -1
24 13 24 5 0 9 -4 9 -8z m100 -6 c0 -8 6 -16 13 -19 6 -2 9 -7 5 -11 -8 -10
-49 25 -42 36 8 13 24 9 24 -6z m60 -7 c0 -5 -7 -9 -15 -9 -15 0 -20 12 -9 23
8 8 24 -1 24 -14z m-513 -1 c-2 -7 -12 -12 -21 -12 -9 1 -16 -5 -16 -13 0 -8
-5 -13 -12 -11 -21 7 -19 23 4 34 32 16 50 16 45 2z m87 -11 c6 -9 6 -20 2
-24 -5 -4 -11 -2 -13 5 -3 6 -11 12 -19 12 -15 0 -19 12 -7 24 10 9 25 3 37
-17z m-284 3 c0 -5 -4 -10 -10 -10 -5 0 -10 5 -10 10 0 6 5 10 10 10 6 0 10
-4 10 -10z m90 -11 c0 -5 -7 -9 -15 -9 -15 0 -20 12 -9 23 8 8 24 -1 24 -14z
m255 -9 c-5 -8 -11 -8 -17 -2 -6 6 -7 16 -3 22 5 8 11 8 17 2 6 -6 7 -16 3
-22z m455 20 c0 -5 -5 -10 -11 -10 -5 0 -7 5 -4 10 3 6 8 10 11 10 2 0 4 -4 4
-10z m-862 -11 c-5 -14 -21 -14 -26 0 -2 6 4 11 13 11 9 0 15 -5 13 -11z m292
-10 c0 -5 -7 -9 -15 -9 -15 0 -20 12 -9 23 8 8 24 -1 24 -14z m388 10 c-5 -14
-21 -14 -26 0 -2 6 4 11 13 11 9 0 15 -5 13 -11z m-648 -20 c0 -5 -7 -9 -15
-9 -15 0 -20 12 -9 23 8 8 24 -1 24 -14z m802 6 c0 -5 -5 -11 -11 -13 -6 -2
-11 4 -11 13 0 9 5 15 11 13 6 -2 11 -8 11 -13z"/>
<path d="M1735 791 c-11 -10 -3 -18 17 -16 28 2 35 21 8 21 -12 0 -23 -2 -25
-5z"/>
<path d="M1835 590 c-3 -5 -1 -10 4 -10 6 0 11 5 11 10 0 6 -2 10 -4 10 -3 0
-8 -4 -11 -10z"/>
<path d="M1400 170 c0 -5 5 -10 10 -10 6 0 10 5 10 10 0 6 -4 10 -10 10 -5 0
-10 -4 -10 -10z"/>
<path d="M988 1143 c7 -3 16 -2 19 1 4 3 -2 6 -13 5 -11 0 -14 -3 -6 -6z"/>
<path d="M965 1090 c-3 -6 1 -7 9 -4 18 7 21 14 7 14 -6 0 -13 -4 -16 -10z"/>
<path d="M950 1054 c-17 -10 -18 -13 -5 -8 11 3 26 7 33 7 6 0 12 4 12 9 0 12
-11 9 -40 -8z"/>
<path d="M1796 991 c-3 -4 6 -8 20 -9 13 -1 24 0 24 2 0 7 -40 14 -44 7z"/>
</g>
</svg>
